{"asset":{"version":"2.0","generator":"THREE.GLTFExporter"},"scenes":[{"name":"AuxScene","nodes":[1]}],"scene":0,"nodes":[{"name":"Brain","extras":{"name":"Brain"},"mesh":0},{"name":"Scene","children":[0]}],"bufferViews":[{"buffer":0,"byteOffset":0,"byteLength":62460,"target":34962,"byteStride":12},{"buffer":0,"byteOffset":62460,"byteLength":62460,"target":34962,"byteStride":12},{"buffer":0,"byteOffset":124920,"byteLength":62436,"target":34963}],"buffers":[{"byteLength":187356,"uri":"data:application/octet-stream;base64,"}],"accessors":[{"bufferView":0,"componentType":5126,"count":5205,"max":[1.1354396343231201,1.044958233833313,1.4343116283416748],"min":[-1.1213942766189575,-1.277160882949829,-1.3660423755645752],"type":"VEC3"},{"bufferView":1,"componentType":5126,"count":5205,"max":[0.9998841285705566,0.9995706081390381,0.9998125433921814],"min":[-0.998411238193512,-0.9998819828033447,-0.9996628165245056],"type":"VEC3"},{"bufferView":2,"componentType":5123,"count":31218,"max":[5204],"min":[0],"type":"SCALAR"}],"materials":[{"pbrMetallicRoughness":{"metallicFactor":1,"roughnessFactor":1}}],"meshes":[{"primitives":[{"mode":4,"attributes":{"POSITION":0,"NORMAL":1},"indices":2,"material":0}]}]}