<?xml version="1.0" encoding="utf-8"?>
<!-- Svg Vector Icons : http://www.onlinewebfonts.com/icon -->
<!DOCTYPE svg PUBLIC "-//W3C//DTD SVG 1.1//EN" "http://www.w3.org/Graphics/SVG/1.1/DTD/svg11.dtd">
<svg version="1.1" xmlns="http://www.w3.org/2000/svg" xmlns:xlink="http://www.w3.org/1999/xlink" x="0px" y="0px" viewBox="0 0 1000 1000" enable-background="new 0 0 1000 1000" xml:space="preserve">
<metadata> Svg Vector Icons : http://www.onlinewebfonts.com/icon </metadata>
<g><g><g><path d="M985.6,408.1c-45.3-11-73.4,15.7-115.5,60.2c-8.2,8.7-16.2,18.1-24.4,27.6c-2.1,2.5-4.3,5-6.4,7.4c7.2-26.4,1.3-51.6-18.4-72.7c1.3-1.9,2.7-3.6,3.4-5.8c2.5-7.4,2.1-15.4-1.4-22.5c-7-14.2-25-20.5-39.2-13.6c-14.6,7.1-20.6,24.7-13.6,39.4c4.9,10,15.2,16.4,26.4,16.4c4.5,0,8.8-1,12.8-2.9c1.4-0.7,2.3-1.8,3.5-2.6c24.4,26.5,24,59.7-1,93.9c-25.7,24.9-55.4,43.4-96.7,39.7c-0.2,0-0.3-0.1-0.5-0.1c6.8-51.9-23.4-103.4-74.6-121.4c-35.3-12.4-73.2-10.2-106.9,6c-5.6,2.7-10.9,5.9-16,9.2l12.4-18.4c1.2-1.8,1.3-4,0.3-5.9c-1-1.9-2.9-3.1-5.1-3.1h-9c0.7-2,1.3-4.2,1.3-6.4c0-3.6-1.3-6.8-3-9.7c9.9-1.2,23.1-4.6,32.3-13.9c16.5-16.8,13.9-46.1,13.9-46.1s-29.4-2.2-45.9,14.6c-5.2,5.3-8.4,12-10.5,18.5v-8.7c0-26.1,20-47.4,45.4-49.9c2,2.7,5.2,4.6,8.8,4.6c6.2,0,11.1-5,11.1-11c0-6.2-4.9-11.1-11.1-11.1c-4.3,0-8,2.5-9.8,6.1c-18.5,1.8-34.6,11.5-44.7,26v-36.9c3.1-1.9,5.3-5.3,5.3-9.3c0-6.1-5-11.1-11.1-11.1c-6.2,0-11.1,5-11.1,11.1c0,4,2.2,7.3,5.3,9.3v36.9c-10.1-14.5-26.3-24.2-44.8-26c-1.8-3.5-5.4-6.1-9.8-6.1c-6.1,0-11.1,5-11.1,11.1c0,6.1,5,11,11.1,11c3.7,0,6.8-1.9,8.8-4.6c25.4,2.5,45.5,23.8,45.5,49.9v8.7c-2.1-6.5-5.3-13.1-10.5-18.5c-16.6-16.8-45.9-14.6-45.9-14.6s-2.7,29.4,13.9,46.1c9.2,9.4,22.5,12.8,32.3,13.9c-1.7,2.9-3,6.1-3,9.7c0,2.3,0.5,4.4,1.3,6.4h-9c-2.1,0-4.1,1.2-5.1,3.1c-1,1.9-0.9,4.2,0.3,5.9l12.4,18.4c-5.2-3.4-10.3-6.5-15.9-9.2c-33.6-16.2-71.5-18.3-106.8-6c-28.5,10-51.4,30.4-64.5,57.7c-9.7,20.1-13,42.1-10.2,63.8c-39.4,2.2-68.3-15.7-93.3-39.8c-24.9-34.1-25.3-67.3-0.9-93.7c1.2,0.8,2.1,1.9,3.5,2.6c4,2,8.3,3,12.8,3c11.1,0,21.5-6.5,26.4-16.5c7.1-14.6,1-32.2-13.6-39.3c-14.3-6.9-32.3-0.6-39.2,13.6c-3.4,7.1-3.9,15-1.4,22.5c0.8,2.2,2.2,3.9,3.4,5.8c-19.7,21.1-25.6,46.3-18.4,72.7c-2.1-2.5-4.3-5-6.4-7.5c-8.1-9.5-16.1-18.9-24.4-27.6c-42.1-44.5-70.2-71.2-115.5-60.1c-3.1,0.7-5,3.9-4.2,7c0.7,3.1,3.7,5,7,4.2c36.5-9,60.7,11.3,96.5,48.7c-27.2-11.1-54.5-7.5-78.3,12c-2.5,2-2.8,5.6-0.8,8.1c2,2.5,5.7,2.8,8.1,0.8c29.5-24.2,64.3-20.6,98.2,10.1c0.3,0.4,0.8,0.3,1.2,0.5c1.2,1.4,2.3,2.6,3.5,4c3.8,4.4,7.5,8.9,11.4,13.3c-9-2.9-18.2-3.7-27.8-1.7c-0.4-2.6-1.1-5.1-2.5-7.5c-4.2-6.9-11.8-11.1-17.2-11.6c-15.4-1.5-27.9,3.1-37.9,13.6c-27,28.2-24.5,90.1-24.5,92.7c0.1,2.1,1.3,4,3.2,4.9c0.8,0.4,1.7,0.6,2.5,0.6c1.2,0,2.3-0.4,3.4-1.1c18.7-13.4,30.3-17,42-18.3c28.3-3.2,52-8,55.2-34.2c1.4-10.6-0.8-19.3-6.4-25.7c-1.1-1.2-2.4-1.7-3.5-2.6c18.8,1.6,36.5,15.7,56.3,33.6c0.6,0.5,1.4,0.5,2,0.8c20.1,14.8,43.2,24.7,72.2,24.7c3.3,0,6.6-0.2,10.1-0.5c0.9,3.7,1.4,7.4,2.7,11c16.7,47.6,69.1,72.6,116.6,56.1c11.7-4.1,21.5-11,29.3-19.5c-0.3,2.4-0.7,4.7-0.7,7.2c0,36.4,29.7,66.1,66.1,66.1c36.4,0,66.1-29.7,66.1-66.1c0-2.5-0.5-4.9-0.7-7.3c7.9,8.5,17.7,15.5,29.3,19.6c10.1,3.5,20.2,5.1,30.2,5.1c37.8,0,73.3-23.5,86.5-61.2c1.4-3.8,1.9-7.6,2.8-11.5c0.7,0.1,1.3,0.4,2.1,0.5c4.1,0.4,8.1,0.5,12,0.5c28.9,0,52.1-9.9,72.2-24.6c0.7-0.3,1.4-0.3,2.1-0.8c19.8-18,37.5-32,56.3-33.6c-1.2,1-2.5,1.5-3.5,2.7c-5.6,6.4-7.8,15.1-6.5,25.7c3.3,26.3,26.9,31.1,55.3,34.2c11.7,1.4,23.3,5,42,18.3c1,0.7,2.2,1.1,3.4,1.1c0.9,0,1.7-0.2,2.5-0.6c1.9-0.9,3.1-2.8,3.2-5c0.1-2.5,2.5-64.5-24.5-92.7c-10.1-10.5-22.1-15.1-38-13.6c-5.4,0.5-13,4.8-17.2,11.6c-1.4,2.4-2.1,4.9-2.5,7.6c-9.6-1.9-18.9-1.2-27.8,1.7c3.8-4.4,7.6-8.8,11.4-13.3c1.2-1.4,2.4-2.6,3.5-4c0.4-0.2,0.8-0.1,1.2-0.5c33.8-30.7,68.6-34.2,98.2-10.1c2.4,2,6.1,1.6,8.1-0.8c2-2.4,1.7-6.1-0.8-8.2c-23.8-19.5-51.1-23.1-78.3-12c35.8-37.4,60-57.7,96.5-48.7c3.2,0.8,6.3-1.1,7-4.3C990.5,412,988.6,408.9,985.6,408.1z M813.5,421.1c-1.5,4.5-4.8,8.1-9.1,10.2c-8.5,4.2-19.7,0.4-23.8-8.2c-4.3-8.9-0.5-19.6,8.3-23.9c2.4-1.2,5.1-1.8,7.8-1.8c6.9,0,13,3.8,16.1,10.1C814.8,411.8,815.1,416.6,813.5,421.1z M187.3,407.4c3-6.2,9.2-10.1,16.1-10.1c2.7,0,5.3,0.6,7.8,1.8c8.9,4.3,12.6,15,8.3,23.9c-4.2,8.5-15.2,12.4-23.9,8.2c-4.3-2.1-7.5-5.7-9.1-10.1C184.9,416.6,185.2,411.8,187.3,407.4z M96.8,576.8c-10,1.1-21.5,3.8-38.3,14.3c0.5-18.2,3.7-55.5,21.3-73.7c6.7-6.9,14.6-10.3,24.2-10.3c1.4,0,2.8,0.1,4.3,0.2c1.8,0.3,6.2,2.4,8.5,6.2c1,1.6,1.2,3.3,1,5.1c-10.9,4.6-22.3,13-34.4,26.3c-2.2,2.4-2,6.1,0.4,8.2c2.4,2.2,6,2,8.2-0.4c10.9-11.9,20.9-19.4,30.3-23.5c0.1,0,0.2,0.1,0.4,0.1c0.1,0,10.1,0.3,15.7,6.7c3.4,3.9,4.6,9.5,3.7,16.8C140,567.6,129.9,573,96.8,576.8z M373.6,458.7c28.3-6.5,57.6-3.9,84.1,8.9c12,5.8,22.8,13.2,32.2,22c-12.2,13.6-21.7,29.6-28,47.3c-0.5,1.8-0.3,3.7,0.7,5.3s2.8,2.4,4.7,2.4h19.6c-0.2,0.3-0.5,0.4-0.7,0.6l-20.9,31c-1.2,1.8-1.4,4-0.3,5.9c0,0,0,0,0,0c-4.7,2.7-9.2,5.9-13.1,9.8c1.7-11.6,1.1-23.5-3-35.3c-11.1-31.5-45.8-48.2-77.3-37.1c-1.2,0.4-2.2,1-3.4,1.5C375.4,501.8,377.6,480.3,373.6,458.7z M301.8,513.9c11.8-24.4,32.3-42.8,58-51.8c0.9-0.3,1.8-0.4,2.7-0.6c5.1,28.4-0.8,56.7-16.7,77.8c-12.9,17.2-31.6,28-53.1,31.9C290.1,551.7,293.1,531.9,301.8,513.9z M399.4,640.4c-41.6,14.7-87.4-7.4-102-49c-1.1-3-1.4-6.1-2.2-9.1c16.1-3,30.9-9.4,43.2-19.4c-0.5,6.6,0.4,13.3,2.6,19.7c7.5,21.3,30.8,32.4,52.2,25.1c17.6-6.2,26.9-25.5,20.7-43.1c-1.1-3.1-4.3-4.5-7.3-3.6c-3,1.1-4.6,4.3-3.5,7.3c4,11.7-2.1,24.4-13.7,28.4c-15.2,5.3-32.2-2.7-37.4-18c-3.4-9.6-2.8-19.9,1.6-29.2c4.4-9.1,12.1-16,21.8-19.4c25.5-9,53.6,4.5,62.6,30.1C449.5,593,432.1,628.9,399.4,640.4z M473.7,687.7c-17.9-9-30.4-27.3-30.4-48.7c0-21.3,12.4-39.7,30.4-48.7c-7.1,12-11.5,29.2-11.5,48.7C462.3,658.6,466.7,675.8,473.7,687.7z M492.2,691.6c-9.6-5.9-18.5-25.8-18.5-52.6c0-26.8,8.9-46.6,18.5-52.6V691.6z M492.2,533h-16.5c4.2-10.1,10-19.1,16.5-27.6V533z M538.2,467.5c27.7-13.3,58.6-15.7,88-7.9c-3.9,22.1-1.6,44.1,6.2,63.5c-2.6-1.4-5.3-2.8-8.1-3.8c-31.7-11-66.3,5.7-77.3,37.1c-4.1,11.7-4.7,23.8-3,35.3c-4.3-4.2-9.4-7.6-14.8-10.6c0.3-0.6,0.7-1.2,0.7-1.9c0-1.8-0.8-3.4-2.1-4.4l-20.1-29.7c-0.2-0.3-0.5-0.4-0.7-0.6h21.5c1.9,0,3.6-0.9,4.7-2.4c1.1-1.5,1.4-3.4,0.7-5.3c-6.2-17.7-15.8-33.8-28-47.3C515.4,480.7,526.3,473.3,538.2,467.5z M503.7,505.5c6.4,8.5,12.2,17.5,16.4,27.5h-16.4V505.5z M503.7,691.6V586.5c9.6,6,18.4,25.8,18.4,52.6C522.1,665.9,513.3,685.7,503.7,691.6z M522.2,687.8c7-12,11.5-29.2,11.5-48.7c0-19.5-4.4-36.7-11.5-48.7c17.9,9,30.3,27.4,30.3,48.7C552.5,660.4,540.1,678.8,522.2,687.8z M698.4,591.4c-14.6,41.7-60.4,63.7-102,49.1c-32.7-11.5-50-47.5-38.6-80.1c9-25.5,37.1-39,62.7-30.1c9.6,3.3,17.3,10.2,21.7,19.5c4.4,9.2,5.1,19.6,1.6,29.2c-2.6,7.4-7.9,13.4-15,16.8c-7.1,3.4-15,3.9-22.4,1.3c-5.6-2-10.2-6-12.8-11.4c-2.6-5.4-2.9-11.4-1-17.1c1-3-0.5-6.3-3.5-7.3c-3-1-6.3,0.5-7.4,3.5c-3,8.5-2.4,17.7,1.4,25.9c3.9,8.2,10.8,14.3,19.3,17.3c10.3,3.6,21.4,3,31.2-1.8c9.8-4.7,17.3-13,20.8-23.4c2.7-7.7,3.2-15.8,2-23.7c12.2,11.3,27.3,18.9,43.9,22.6C700,584.8,699.6,588.1,698.4,591.4z M703.3,570.4c-19.7-4.4-36.9-15-49-31.2c-15.6-20.8-21.5-48.5-16.8-76.6C682.5,479.1,709,524.4,703.3,570.4z M861.8,535.8c5.6-6.5,15.7-6.7,15.8-6.7c0.1,0,0.2,0,0.3-0.1c9.5,4,19.5,11.5,30.3,23.5c2.2,2.4,5.9,2.5,8.2,0.4c2.3-2.1,2.5-5.8,0.4-8.2c-12.1-13.2-23.5-21.6-34.4-26.3c-0.2-1.8,0.1-3.5,1-5.1c2.2-3.7,6.6-5.9,8.4-6.2c1.5-0.1,2.9-0.2,4.3-0.2c9.6,0,17.5,3.4,24.2,10.3c17.5,18.3,20.7,55.5,21.3,73.7c-16.8-10.5-28.3-13.1-38.3-14.3c-33.1-3.8-43.3-9.2-45.1-24.2C857.2,545.3,858.4,539.7,861.8,535.8z"/></g></g><g></g><g></g><g></g><g></g><g></g><g></g><g></g><g></g><g></g><g></g><g></g><g></g><g></g><g></g><g></g></g>
</svg>