<!DOCTYPE svg PUBLIC "-//W3C//DTD SVG 20010904//EN" "http://www.w3.org/TR/2001/REC-SVG-20010904/DTD/svg10.dtd">
<svg version="1.0" xmlns="http://www.w3.org/2000/svg" width="543px" height="537px" viewBox="0 0 5430 5370" preserveAspectRatio="xMidYMid meet">
<!--g id="layer101" fill="#000000" stroke="none">
 <path d="M0 2685 l0 -2685 2715 0 2715 0 0 2685 0 2685 -2715 0 -2715 0 0 -2685z"/>
 </g>
<g id="layer102" fill="#282828" stroke="none">
 <path d="M0 5355 c0 -13 308 -15 2715 -15 2407 0 2715 2 2715 15 0 13 -308 15 -2715 15 -2407 0 -2715 -2 -2715 -15z"/>
 <path d="M1668 4628 c-18 -24 -39 -54 -46 -68 -7 -14 -21 -38 -32 -55 -11 -16 -26 -41 -33 -55 -7 -14 -24 -44 -39 -66 -15 -23 -34 -57 -42 -75 -9 -19 -25 -47 -36 -64 -11 -16 -27 -43 -35 -60 -9 -16 -25 -43 -35 -60 -11 -16 -27 -43 -36 -60 -8 -16 -26 -48 -40 -70 -13 -22 -31 -53 -39 -70 -9 -16 -24 -43 -35 -60 -22 -33 -51 -84 -75 -130 -9 -16 -25 -43 -35 -60 -11 -16 -27 -43 -36 -60 -8 -16 -26 -48 -39 -70 -13 -22 -31 -53 -40 -70 -8 -16 -24 -43 -35 -60 -11 -16 -27 -43 -36 -60 -8 -16 -26 -48 -39 -70 -13 -22 -31 -53 -40 -70 -8 -16 -24 -43 -35 -60 -11 -16 -27 -43 -36 -60 -8 -16 -26 -48 -39 -70 -53 -88 -71 -164 -45 -180 6 -4 17 -21 25 -38 8 -18 24 -45 35 -62 11 -16 27 -43 35 -60 9 -16 27 -48 40 -70 13 -22 31 -53 39 -70 9 -16 25 -43 36 -60 11 -16 27 -43 35 -60 9 -16 27 -48 40 -70 13 -22 31 -53 39 -70 9 -16 25 -43 36 -60 11 -16 27 -43 35 -60 9 -16 27 -48 40 -70 13 -22 31 -53 39 -70 9 -16 25 -43 36 -60 10 -16 26 -43 35 -60 25 -48 54 -98 75 -130 11 -16 27 -43 35 -60 9 -16 27 -48 40 -70 13 -22 31 -53 39 -70 9 -16 25 -43 36 -60 11 -16 27 -43 35 -60 9 -16 27 -48 40 -70 13 -22 31 -53 39 -70 9 -16 25 -43 35 -60 11 -16 29 -48 40 -71 16 -31 30 -44 59 -53 28 -9 225 -11 785 -9 l749 3 -93 60 c-51 33 -98 62 -103 64 -6 2 -13 7 -16 11 -6 9 -140 110 -146 110 -2 0 -13 8 -23 17 -10 10 -33 29 -49 43 -17 14 -43 35 -57 48 l-26 22 -399 0 c-219 0 -410 4 -423 9 -13 5 -27 18 -31 28 -3 10 -15 32 -26 48 -11 17 -27 44 -35 60 -9 17 -27 48 -40 70 -13 22 -31 54 -39 70 -9 17 -25 44 -36 60 -11 17 -27 44 -35 60 -9 17 -27 48 -40 70 -13 22 -29 49 -35 60 -6 11 -22 38 -35 60 -13 22 -31 54 -40 70 -8 17 -24 44 -35 60 -11 17 -27 44 -36 60 -8 17 -26 48 -39 70 -13 22 -31 54 -40 70 -8 17 -24 44 -35 60 -11 17 -27 44 -36 60 -8 17 -26 48 -39 70 -13 22 -31 54 -40 70 -8 17 -24 44 -35 60 -33 51 -59 107 -65 139 -6 32 7 69 50 141 13 22 29 49 35 60 6 11 22 38 35 60 14 22 32 54 40 70 9 17 27 48 40 70 13 22 31 54 39 70 9 17 25 44 36 60 11 17 27 44 35 60 9 17 25 44 35 60 11 17 27 44 35 60 9 17 27 48 40 70 13 22 31 54 39 70 9 17 25 44 36 60 11 17 28 46 37 65 16 34 17 34 20 10 2 -14 11 -50 19 -80 9 -30 23 -80 32 -110 20 -71 100 -318 112 -347 11 -25 25 -61 39 -95 30 -79 47 -117 157 -338 47 -96 97 -193 109 -215 13 -22 29 -49 34 -60 15 -27 32 -54 58 -92 13 -17 23 -34 23 -38 0 -10 97 -150 114 -164 9 -7 16 -19 16 -26 0 -7 11 -24 25 -39 14 -15 25 -31 25 -37 0 -5 7 -12 15 -15 8 -4 15 -11 15 -18 0 -6 8 -19 18 -28 9 -9 26 -29 37 -43 20 -27 36 -46 85 -107 89 -108 429 -449 536 -536 16 -13 45 -37 64 -54 19 -17 46 -37 60 -46 14 -9 29 -22 33 -29 4 -7 14 -13 21 -13 8 0 16 -7 20 -15 3 -8 12 -15 21 -15 8 0 15 -4 15 -9 0 -8 262 -191 275 -191 3 0 21 -11 38 -24 18 -14 43 -30 57 -36 14 -6 43 -21 65 -35 37 -22 65 -37 210 -112 55 -28 180 -87 235 -110 69 -29 105 -45 120 -53 9 -4 30 -11 48 -14 17 -4 34 -12 37 -17 4 -5 14 -9 23 -9 9 0 29 -6 43 -14 38 -19 129 -49 135 -43 3 2 -10 12 -28 21 -51 26 -95 54 -227 146 -67 47 -129 90 -138 95 -9 6 -30 22 -47 38 -17 15 -33 27 -37 27 -3 0 -18 10 -32 23 -14 12 -39 33 -56 47 -42 35 -80 68 -146 125 -69 60 -292 284 -355 355 -25 29 -58 67 -75 85 -16 18 -52 63 -80 99 -27 36 -53 66 -57 66 -5 0 -8 6 -8 13 0 7 -13 26 -30 42 -16 16 -30 32 -30 36 0 4 -26 44 -57 89 -32 45 -62 90 -68 99 -5 9 -24 36 -41 61 -16 25 -33 52 -37 60 -4 8 -16 29 -27 45 -11 17 -26 44 -35 60 -9 17 -30 55 -48 87 -60 106 -164 323 -205 428 -16 41 -34 84 -43 102 -5 10 -9 23 -9 30 0 7 -6 25 -14 39 -32 62 -150 468 -171 589 -2 14 -11 59 -20 100 -20 98 -22 107 -30 160 -22 153 -35 270 -40 361 -1 37 -6 81 -10 98 l-7 31 515 0 c331 0 525 -4 544 -10 18 -7 39 -27 54 -52 13 -22 34 -57 46 -77 12 -20 27 -45 33 -56 6 -11 21 -38 35 -60 13 -22 31 -53 39 -70 9 -16 25 -43 36 -60 10 -16 26 -43 35 -60 8 -16 26 -48 39 -70 14 -22 32 -53 40 -70 9 -16 25 -43 36 -60 10 -16 26 -43 35 -60 8 -16 26 -48 39 -70 14 -22 32 -53 40 -70 9 -16 25 -43 36 -60 10 -16 26 -43 35 -60 8 -16 26 -48 39 -70 14 -22 32 -53 40 -70 9 -16 25 -43 36 -60 10 -16 26 -43 34 -60 17 -33 30 -55 60 -99 36 -54 25 -113 -39 -221 -13 -22 -31 -53 -40 -70 -8 -16 -24 -43 -35 -60 -11 -16 -26 -41 -33 -55 -7 -14 -24 -43 -38 -65 -24 -38 -35 -56 -74 -130 -9 -16 -27 -48 -40 -70 -13 -22 -31 -53 -40 -70 -8 -16 -24 -43 -35 -60 -11 -16 -27 -43 -36 -60 -8 -16 -26 -48 -39 -70 -13 -22 -31 -53 -40 -70 -8 -16 -24 -43 -35 -60 -11 -16 -25 -41 -32 -55 -7 -14 -20 -36 -30 -49 -23 -30 -23 -52 0 -73 9 -9 26 -29 37 -43 26 -35 76 -91 146 -166 l57 -60 23 46 c34 65 56 105 79 140 11 17 27 44 35 60 9 17 27 48 40 70 13 22 31 54 39 70 9 17 25 44 36 60 11 17 27 44 35 60 9 17 27 48 40 70 13 22 31 54 39 70 9 17 25 44 36 60 11 17 26 41 33 55 7 14 24 43 38 65 25 38 40 65 74 130 9 17 27 48 40 70 13 22 31 54 39 70 9 17 25 44 36 60 11 17 27 44 35 60 9 17 27 48 40 70 70 118 79 162 42 216 -12 19 -28 45 -35 59 -7 14 -21 39 -32 55 -11 17 -26 44 -35 60 -8 17 -24 44 -35 60 -11 17 -27 44 -35 60 -9 17 -27 48 -40 70 -13 22 -31 54 -39 70 -9 17 -25 44 -36 60 -11 17 -27 44 -35 60 -9 17 -27 48 -40 70 -13 22 -31 54 -39 70 -9 17 -25 44 -36 60 -11 17 -27 44 -35 60 -9 17 -27 48 -40 70 -13 22 -31 54 -39 70 -9 17 -25 44 -36 60 -11 17 -27 44 -35 60 -9 17 -27 48 -40 70 -13 22 -31 54 -39 70 -9 17 -25 44 -36 60 -10 17 -26 44 -35 60 -8 17 -26 48 -40 70 -13 22 -29 49 -35 60 -6 11 -22 38 -35 60 -14 22 -30 51 -37 65 -7 14 -28 44 -46 68 l-34 42 -1013 0 -1013 0 -34 -42z"/>
 </g-->
<g id="layer103" fill="#ffffff" stroke="none">
 <path d="M1703 4658 c-30 -14 -22 -2 -473 -783 -216 -374 -428 -741 -471 -816 -44 -75 -79 -147 -79 -161 0 -14 173 -324 401 -719 627 -1088 596 -1035 627 -1048 19 -8 236 -10 772 -9 l745 3 -95 64 c-110 75 -225 160 -326 243 l-71 58 -408 0 -407 0 -25 28 c-14 15 -84 131 -157 257 -73 127 -242 419 -376 650 -196 340 -244 429 -247 465 -5 47 4 64 524 959 l26 45 39 -145 c161 -600 448 -1164 845 -1659 126 -157 390 -432 548 -568 352 -304 757 -556 1190 -740 151 -64 315 -124 315 -114 -1 4 -58 44 -128 90 -259 168 -474 344 -712 582 -413 412 -723 870 -950 1400 -185 432 -317 969 -345 1400 -3 47 -8 102 -11 123 l-4 37 529 0 530 0 25 -22 c14 -13 196 -320 406 -683 315 -546 380 -666 380 -697 0 -31 -55 -133 -315 -584 l-315 -546 53 -67 c64 -78 186 -215 195 -219 4 -1 187 310 407 690 327 567 400 699 399 728 -1 27 -108 221 -481 866 -265 457 -488 842 -497 856 -9 14 -28 30 -42 36 -34 16 -1989 16 -2021 0z"/>
 </g>

</svg>