# Blender v2.74 (sub 0) OBJ File: ''
# www.blender.org
mtllib synthcar.mtl
o Box
v 0.871450 0.529200 3.491685
v 1.253548 1.029200 -3.507930
v 0.871526 0.279200 3.416685
v 1.253548 0.279200 -3.507930
v -1.246450 1.029200 -3.510465
v -0.878549 0.529200 3.489910
v -1.246450 0.279200 -3.510465
v -0.878472 0.279200 3.414910
v 1.499999 0.279200 -0.007679
v 1.249999 1.279200 -0.007932
v -1.499999 0.279200 -0.010721
v -1.249999 1.279200 -0.010468
v -1.497210 0.279200 -2.760719
v -1.247211 0.779200 -2.760466
v 1.252788 0.779200 -2.757931
v 1.502787 0.279200 -2.757677
v 1.501520 0.279200 -1.507678
v 1.501520 1.131473 -1.507678
v -1.498478 0.279200 -1.510720
v -1.498478 1.131473 -1.510720
vt 0.000000 1.000000
vt 0.000000 0.000000
vt 0.500000 0.000000
vt 0.500000 1.000000
vt 0.214286 0.000000
vt 0.214286 1.000000
vt 0.000000 0.785714
vt 1.000000 0.785714
vt 1.000000 1.000000
vt 0.000000 0.500000
vt 1.000000 0.500000
vt 1.000000 0.000000
vt 0.655844 0.000000
vt 0.655844 1.000000
vt 0.000000 0.344156
vt 1.000000 0.344156
vt 0.344156 0.000000
vt 0.344156 1.000000
vt 0.000000 0.655844
vt 1.000000 0.655844
vt 0.785714 0.000000
vt 0.785714 1.000000
vt 0.000000 0.214286
vt 1.000000 0.214286
vn 1.000000 0.000000 0.001000
vn -1.000000 0.000000 -0.001000
vn 0.000000 1.000000 -0.000000
vn 0.000000 -1.000000 -0.000000
vn -0.000900 0.000000 1.000000
vn -0.001000 0.000000 1.000000
vn 0.001000 0.000000 -1.000000
usemtl b0b0b0
s 1
f 1/1/1 3/2/1 9/3/1 10/4/1
f 5/1/2 7/2/2 13/5/2 14/6/2
f 5/1/3 14/7/3 15/8/3 2/9/3
f 8/1/4 11/10/4 9/11/4 3/9/4
f 6/1/5 8/2/6 3/12/6 1/9/6
f 2/1/7 4/2/7 7/12/7 5/9/7
f 9/3/1 17/13/1 18/14/1 10/4/1
f 11/3/2 8/12/2 6/9/2 12/4/2
f 12/10/3 6/2/3 1/12/3 10/11/3
f 11/10/4 19/15/4 17/16/4 9/11/4
f 13/5/2 19/17/2 20/18/2 14/6/2
f 14/7/3 20/19/3 18/20/3 15/8/3
f 16/21/1 4/12/1 2/9/1 15/22/1
f 13/23/4 7/2/4 4/12/4 16/24/4
f 17/13/1 16/21/1 15/22/1 18/14/1
f 19/15/4 13/23/4 16/24/4 17/16/4
f 19/17/2 11/3/2 12/4/2 20/18/2
f 20/19/3 12/10/3 10/11/3 18/20/3
